<svg width="12pt" height="12pt" version="1.1" viewBox="0 0 12 12" xmlns="http://www.w3.org/2000/svg">
 <path d="m4.9494 7.9061q0-0.57033 0.10506-0.97557 0.12007-0.42024 0.39023-0.79546 0.28517-0.37522 0.76544-0.78045 0.58534-0.49529 0.90052-0.82548 0.33019-0.33019 0.46527-0.64537t0.13508-0.76544q0-0.72042-0.46527-1.1106t-1.3508-0.39023q-0.73543 0-1.3058 0.19511-0.57033 0.1801-1.0956 0.43525l-0.46527-1.0506q0.60035-0.31518 1.3208-0.5253 0.73543-0.21012 1.6359-0.21012 1.4258 0 2.2063 0.70541 0.78045 0.70541 0.78045 1.9211 0 0.67539-0.22513 1.1557-0.21012 0.46527-0.61536 0.8705-0.39023 0.39023-0.93054 0.84049-0.49529 0.42024-0.76544 0.73543-0.25515 0.31518-0.3452 0.63037-0.090052 0.30017-0.090052 0.73543v0.25515h-1.0506zm-0.3452 2.6115q0-0.55532 0.25515-0.78045 0.27016-0.22513 0.67539-0.22513 0.37522 0 0.64537 0.22513t0.27016 0.78045q0 0.54031-0.27016 0.78045-0.27016 0.24014-0.64537 0.24014-0.40523 0-0.67539-0.24014-0.25515-0.24014-0.25515-0.78045z" fill="#f00" stroke-width=".37522" aria-label="?"/>
</svg>
